<svg width="200" height="200" viewBox="0 0 200 200" fill="none" xmlns="http://www.w3.org/2000/svg">
  <circle cx="100" cy="100" r="80" fill="#F3F4F6" stroke="#E5E7EB" stroke-width="2"/>
  <path d="M70 85C70 80.0294 74.0294 76 79 76H121C125.971 76 130 80.0294 130 85V125C130 129.971 125.971 134 121 134H79C74.0294 134 70 129.971 70 125V85Z" fill="white" stroke="#D1D5DB" stroke-width="2"/>
  <circle cx="85" cy="91" r="4" fill="#9CA3AF"/>
  <circle cx="100" cy="91" r="4" fill="#9CA3AF"/>
  <circle cx="115" cy="91" r="4" fill="#9CA3AF"/>
  <rect x="80" y="105" width="40" height="2" rx="1" fill="#E5E7EB"/>
  <rect x="80" y="115" width="30" height="2" rx="1" fill="#E5E7EB"/>
  <path d="M85 65L95 55L105 65" stroke="#9CA3AF" stroke-width="2" stroke-linecap="round" stroke-linejoin="round"/>
  <path d="M95 55V75" stroke="#9CA3AF" stroke-width="2" stroke-linecap="round"/>
</svg>