<svg width="32" height="32" viewBox="0 0 32 32" fill="none" xmlns="http://www.w3.org/2000/svg">
  <rect width="32" height="32" rx="6" fill="#2563EB"/>
  <path d="M10 12C10 10.8954 10.8954 10 12 10H14C15.1046 10 16 10.8954 16 12V14C16 15.1046 15.1046 16 14 16H12C10.8954 16 10 15.1046 10 14V12Z" fill="white"/>
  <path d="M18 12C18 10.8954 18.8954 10 20 10H22C23.1046 10 24 10.8954 24 12V14C24 15.1046 23.1046 16 22 16H20C18.8954 16 18 15.1046 18 14V12Z" fill="white"/>
  <path d="M10 20C10 18.8954 10.8954 18 12 18H14C15.1046 18 16 18.8954 16 20V22C16 23.1046 15.1046 24 14 24H12C10.8954 24 10 23.1046 10 22V20Z" fill="white"/>
  <path d="M18 20C18 18.8954 18.8954 18 20 18H22C23.1046 18 24 18.8954 24 20V22C24 23.1046 23.1046 24 22 24H20C18.8954 24 18 23.1046 18 22V20Z" fill="white"/>
  <path d="M16 13L18 13" stroke="white" stroke-width="1" stroke-linecap="round"/>
  <path d="M16 21L18 21" stroke="white" stroke-width="1" stroke-linecap="round"/>
  <path d="M13 16L13 18" stroke="white" stroke-width="1" stroke-linecap="round"/>
  <path d="M21 16L21 18" stroke="white" stroke-width="1" stroke-linecap="round"/>
</svg>